With: Terra Vnesa, Dean Armstrong and Tenika Davis

Een groep vrienden besluit tijdens hun wintervakantie met een sneeuwscooter rond te trekken. Ze nemen een verkeerde afslag en komen terecht in een storm. Ze zoeken hun toevlucht in een verlaten sanatorium. Door de storm kunnen de vrienden niet naar buiten en ze zijn blij dat ze ergens kunnen verblijven. Maar wat ze niet weten is dat het sanatorium een vreselijk verleden heeft en dat een aantal voormalige patiënten er nog steeds woont. Een dodelijk kat-en-muisspel begint.

Follows a group of friends that decide to go snowmobiling during their winter break. They make a "wrong turn", getting lost in a storm. 

------------------ Dutch Friends ------------------
You can find my Friends at: http://www.Film-Test.nl 
------ They got my dutch subs ----- and more ------

General:

Complete name                    : Wrong Turn 4\Bloody Beginnings.avi
Format                           : AVI
Format/Info                      : Audio Video Interleave
File size                        : 1.44 GiB
Duration                         : 1h 33mn
Overall bit rate                 : 2 214 Kbps

Video:

Format                           : MPEG-4 Visual
Format profile                   : Simple@L3
Format settings, BVOP            : No
Format settings, QPel            : No
Format settings, GMC             : No warppoints
Format settings, Matrix          : Default (H.263)
Codec ID                         : XVID
Codec ID/Hint                    : XviD
Duration                         : 1h 33mn
Bit rate                         : 1 755 Kbps
Width                            : 704 pixels
Height                           : 396 pixels
Display aspect ratio             : 16:9
Frame rate                       : 23.976 fps
Color space                      : YUV
Chroma subsampling               : 4:2:0
Bit depth                        : 8 bits
Scan type                        : Progressive
Compression mode                 : Lossy
Bits/(Pixel*Frame)               : 0.263
Stream size                      : 1.14 GiB (79%)
Writing library                  : XviD 1.1.2 (UTC 2006-11-01)

Audio:

Format                           : AC-3
Format/Info                      : Audio Coding 3
Mode extension                   : CM (complete main)
Codec ID                         : 2000
Duration                         : 1h 33mn
Bit rate mode                    : Constant
Bit rate                         : 448 Kbps
Channel(s)                       : 6 channels
Channel positions                : Front: L C R, Side: L R, LFE
Sampling rate                    : 48.0 KHz
Bit depth                        : 16 bits
Compression mode                 : Lossy
Stream size                      : 299 MiB (20%)
Alignment                        : Aligned on interleaves
Interleave, duration             : 32 ms (0.77 video frame)
Interleave, preload duration     : 64 ms

